<?xml version="1.0" encoding="utf-8"?>
<!-- Generator: Adobe Illustrator 23.0.0, SVG Export Plug-In . SVG Version: 6.00 Build 0)  -->
<svg version="1.1" id="Capa_1" xmlns="http://www.w3.org/2000/svg" xmlns:xlink="http://www.w3.org/1999/xlink" x="0px" y="0px"
	 viewBox="0 0 512 512" style="enable-background:new 0 0 512 512;" xml:space="preserve">
<style type="text/css">
	.st0{fill:#DDDDDD;}
</style>
<path class="st0" d="M256,512C114.8,512,0,399,0,260.2S114.8,8.3,256,8.3s256,113,256,251.8S397.2,512,256,512z M256,39.8
	c-123.5,0-224,98.8-224,220.3s100.5,220.3,224,220.3s224-98.8,224-220.3S379.5,39.8,256,39.8L256,39.8z"/>
<path class="st0" d="M256,392.3c-70.6,0-128-57.4-128-128s57.4-128,128-128c34.7,0,67.2,13.7,91.5,38.5l-22.9,22.4
	c-18.2-18.6-42.5-28.8-68.6-28.8c-52.9,0-96,43.1-96,96s43.1,96,96,96c26,0,50.4-10.2,68.6-28.8l22.8,22.4
	C323.2,378.7,290.7,392.3,256,392.3L256,392.3z"/>
</svg>
